<mxfile host="app.diagrams.net" modified="2023-12-13T09:38:25.313Z" agent="Mozilla/5.0 (Windows NT 10.0; Win64; x64) AppleWebKit/537.36 (KHTML, like Gecko) Chrome/120.0.0.0 Safari/537.36" version="22.1.8" etag="gl0RW9vBRQ2m0hmHUJ1f" type="github">
  <diagram name="Sida-1" id="bKw0bIiM0PqHLVDnq4WX">
    <mxGraphModel>
      <root>
        <mxCell id="0" />
        <mxCell id="1" parent="0" />
      </root>
    </mxGraphModel>
  </diagram>
</mxfile>
